HIERARCHY
ROOT Hips
{
	OFFSET 0.00000 0.00000 0.00000
	CHANNELS 6 Xposition Yposition Zposition Zrotation Yrotation Xrotation 
	JOINT LHipJoint
	{
		OFFSET 0 0 0
		CHANNELS 3 Zrotation Yrotation Xrotation
		JOINT LeftHip
		{
			OFFSET 1.53794 -1.55850 0.93568
			CHANNELS 3 Zrotation Yrotation Xrotation
			JOINT LeftKnee
			{
				OFFSET 2.28545 -6.27922 0.00000
				CHANNELS 3 Zrotation Yrotation Xrotation
				JOINT LeftAnkle
				{
					OFFSET 2.37329 -6.52057 0.00000
					CHANNELS 3 Zrotation Yrotation Xrotation
					JOINT LeftToe
					{
						OFFSET 0.14846 -0.40788 2.09160
						CHANNELS 3 Zrotation Yrotation Xrotation
						End Site
						{
							OFFSET 0.00000 -0.00000 1.07536
						}
					}
				}
			}
		}
	}
	JOINT RHipJoint
	{
		OFFSET 0 0 0
		CHANNELS 3 Zrotation Yrotation Xrotation
		JOINT RightHip
		{
			OFFSET -1.78290 -1.55850 0.93568
			CHANNELS 3 Zrotation Yrotation Xrotation
			JOINT RightKnee
			{
				OFFSET -2.24144 -6.15831 0.00000
				CHANNELS 3 Zrotation Yrotation Xrotation
				JOINT RightAnkle
				{
					OFFSET -2.35091 -6.45907 0.00000
					CHANNELS 3 Zrotation Yrotation Xrotation
					JOINT RightToe
					{
						OFFSET -0.14428 -0.39641 2.07944
						CHANNELS 3 Zrotation Yrotation Xrotation
						End Site
						{
							OFFSET -0.00000 -0.00000 1.06864
						}
					}
				}
			}
		}
	}
	JOINT lowerback
	{
		OFFSET 0 0 0
		CHANNELS 3 Zrotation Yrotation Xrotation
		JOINT Chest
		{
			OFFSET -0.08841 2.11430 -0.15818
			CHANNELS 3 Zrotation Yrotation Xrotation
			JOINT Chest2
			{
				OFFSET -0.00033 2.12605 -0.08097
				CHANNELS 3 Zrotation Yrotation Xrotation
				JOINT lowerneck
				{
					OFFSET 0 0 0
					CHANNELS 3 Zrotation Yrotation Xrotation
					JOINT Neck
					{
						OFFSET 0.04431 1.59447 0.43193
						CHANNELS 3 Zrotation Yrotation Xrotation
						JOINT Head
						{
							OFFSET 0.00455 1.62017 -0.58852
							CHANNELS 3 Zrotation Yrotation Xrotation
							End Site
							{
								OFFSET -0.00920 1.72955 -0.25850
							}
						}
					}
				}
				JOINT LeftCollar
				{
					OFFSET 0 0 0
					CHANNELS 3 Zrotation Yrotation Xrotation
					JOINT LeftShoulder
					{
						OFFSET 2.86490 1.49927 -0.33774
CHANNELS 3 Zrotation Xrotation Yrotation
						JOINT LeftElbow
						{
OFFSET 0 -4.874080 0.000000
CHANNELS 3 Zrotation Xrotation Yrotation
							JOINT LeftWrist
							{
OFFSET 0 -2.767290 0.000000
CHANNELS 3 Zrotation Xrotation Yrotation
								JOINT lhand
								{
									OFFSET 0 0 0
CHANNELS 3 Zrotation Xrotation Yrotation
									JOINT LFingers
									{
OFFSET 0 -0.989220 0.000000
CHANNELS 3 Zrotation Xrotation Yrotation
										End Site
										{
OFFSET 0 -0.797530 0.000000
										}
									}
								}
								JOINT LThumb
								{
OFFSET 0 0.000000 0.000000
CHANNELS 3 Zrotation Xrotation Yrotation
									End Site
									{
OFFSET 0 -0.809720 0.809720
									}
								}
							}
						}
					}
				}
				JOINT RightCollar
				{
					OFFSET 0 0 0
					CHANNELS 3 Zrotation Yrotation Xrotation
					JOINT RightShoulder
					{
						OFFSET -2.94414 1.45463 -0.25291
CHANNELS 3 Zrotation Xrotation Yrotation
						JOINT RightElbow
						{
OFFSET 0 -4.714040 0.000000
CHANNELS 3 Zrotation Xrotation Yrotation
							JOINT RightWrist
							{
OFFSET 0 -2.834680 0.000000
CHANNELS 3 Zrotation Xrotation Yrotation
								JOINT rhand
								{
									OFFSET 0 0 0
CHANNELS 3 Zrotation Xrotation Yrotation
									JOINT RFingers
									{
OFFSET 0 -0.868200 0.000000
CHANNELS 3 Zrotation Xrotation Yrotation
										End Site
										{
OFFSET 0 -0.699960 0.000000
										}
									}
								}
								JOINT RThumb
								{
OFFSET 0 0.000000 0.000000
CHANNELS 3 Zrotation Xrotation Yrotation
									End Site
									{
OFFSET 0 -0.710650 0.710650
									}
								}
							}
						}
					}
				}
			}
		}
	}
}
MOTION
Frames: 9
Frame Time: 0.008333333333333333
1.326315 15.904312 -9.411964 174.123499 3.474397 -174.551965 0.000000 0.000000 0.000000 -30.153655 -7.475584 -9.628169 2.482938 9.806677 28.353022 -1.426657 20.569176 -7.682814 0.043718 -1.347164 -3.704535 0.000000 0.000000 0.000000 11.393781 10.560182 -29.803518 -12.976623 -18.772525 69.051885 1.250079 -19.569498 -10.748838 -1.096448 6.653799 -18.693740 -9.148310 -0.563469 -2.782391 -3.119358 -0.043939 1.339199 1.887336 -0.060294 2.987525 4.103047 1.177801 -32.783473 0.666267 0.755379 36.831286 0.021352 1.551925 19.934350 0.000000 0.000000 0.000000 4.406539 3.374835 -20.387002 19.859620 -30.462644 5.464955 3.648249 33.444762 -6.954644 0.000000 0.000000 0.000000 -7.125000 0.000000 0.000000 -19.294075 36.317674 -4.319704 0.000000 0.000000 0.000000 1.935190 10.865010 5.528221 -14.452078 -23.374062 -3.007198 -3.635764 32.827019 6.986758 0.000000 0.000000 0.000000 7.125000 0.000000 0.000000 19.312102 36.347412 4.309565
1.329898 15.908894 -9.482723 174.081366 3.190059 -174.448740 0.000000 0.000000 0.000000 -30.210219 -7.475939 -9.353405 2.457640 9.760455 28.204420 -1.401826 20.399954 -7.659523 0.047674 -1.407890 -3.871847 0.000000 0.000000 0.000000 11.246653 10.591653 -30.425747 -12.795344 -18.706263 68.488012 1.259959 -19.694589 -11.165906 -1.086625 6.624884 -18.608793 -9.248864 -0.679790 -2.746310 -3.091389 -0.200431 1.329018 1.963380 -0.139211 2.973190 4.113112 1.179501 -32.802494 0.689692 0.733360 36.808184 0.024666 1.546401 19.924698 0.000000 0.000000 0.000000 4.400563 3.141303 -21.435227 20.516734 -31.254897 5.799432 3.738820 32.955709 -6.877486 0.000000 0.000000 0.000000 -7.125000 0.000000 0.000000 -19.201965 36.250447 -4.330442 0.000000 0.000000 0.000000 1.894247 11.061017 4.097469 -14.081758 -22.850120 -2.860683 -3.687431 33.681211 7.059766 0.000000 0.000000 0.000000 7.125000 0.000000 0.000000 19.288789 36.419701 4.267854
1.333631 15.913356 -9.553838 174.041609 2.903165 -174.350566 0.000000 0.000000 0.000000 -30.259266 -7.471598 -9.066308 2.430501 9.710192 28.043366 -1.376877 20.226689 -7.633438 0.051690 -1.465049 -4.029412 0.000000 0.000000 0.000000 11.099555 10.614655 -31.006878 -12.594007 -18.628738 67.857754 1.269898 -19.826515 -11.571176 -1.074009 6.587440 -18.498854 -9.342941 -0.794150 -2.704850 -3.061816 -0.355318 1.322730 2.037700 -0.217384 2.960817 4.116519 1.177635 -32.829391 0.711721 0.710034 36.789807 0.028276 1.539302 19.919830 0.000000 0.000000 0.000000 4.409772 2.892704 -22.429012 21.188291 -32.034728 6.155453 3.831233 32.551615 -6.806777 0.000000 0.000000 0.000000 -7.125000 0.000000 0.000000 -19.110242 36.189312 -4.337704 0.000000 0.000000 0.000000 1.846945 11.245762 2.592248 -13.723830 -22.335033 -2.724538 -3.753719 34.588952 7.141509 0.000000 0.000000 0.000000 7.125000 0.000000 0.000000 19.255848 36.501201 4.219457
1.337363 15.917819 -9.624953 174.001853 2.616270 -174.252392 0.000000 0.000000 0.000000 -30.308312 -7.467257 -8.779211 2.403361 9.659929 27.882313 -1.351928 20.053425 -7.607353 0.055707 -1.522209 -4.186976 0.000000 0.000000 0.000000 10.952456 10.637656 -31.588009 -12.392670 -18.551214 67.227495 1.279837 -19.958441 -11.976447 -1.061392 6.549996 -18.388916 -9.437017 -0.908510 -2.663390 -3.032242 -0.510205 1.316442 2.112020 -0.295558 2.948444 4.119927 1.175769 -32.856287 0.733749 0.686708 36.771430 0.031887 1.532202 19.914962 0.000000 0.000000 0.000000 4.418981 2.644106 -23.422797 21.859847 -32.814559 6.511475 3.923646 32.147521 -6.736067 0.000000 0.000000 0.000000 -7.125000 0.000000 0.000000 -19.018518 36.128176 -4.344966 0.000000 0.000000 0.000000 1.799644 11.430507 1.087028 -13.365902 -21.819946 -2.588393 -3.820006 35.496693 7.223253 0.000000 0.000000 0.000000 7.125000 0.000000 0.000000 19.222907 36.582701 4.171060
1.341355 15.922216 -9.695970 173.974793 2.332502 -174.155521 0.000000 0.000000 0.000000 -30.337174 -7.455559 -8.484593 2.373715 9.604229 27.704559 -1.327240 19.878696 -7.569353 0.060048 -1.579467 -4.344866 0.000000 0.000000 0.000000 10.816427 10.663328 -32.128968 -12.170596 -18.459658 66.526106 1.291045 -20.100751 -12.353525 -1.046562 6.505390 -18.258143 -9.513644 -1.016392 -2.615777 -3.000259 -0.658451 1.312205 2.179796 -0.370412 2.934932 4.113991 1.166936 -32.887285 0.756949 0.656480 36.750937 0.035823 1.521034 19.909638 0.000000 0.000000 0.000000 4.448276 2.376496 -24.367685 22.544978 -33.575965 6.889991 4.008604 31.852647 -6.670306 0.000000 0.000000 0.000000 -7.125000 0.000000 0.000000 -18.934185 36.071045 -4.351609 0.000000 0.000000 0.000000 1.748565 11.605746 -0.503713 -13.022526 -21.317490 -2.463316 -3.901334 36.471919 7.311670 0.000000 0.000000 0.000000 7.125000 0.000000 0.000000 19.179451 36.671624 4.116868
1.345412 15.926597 -9.766963 173.950858 2.049502 -174.058970 0.000000 0.000000 0.000000 -30.361069 -7.442050 -8.188125 2.343451 9.547191 27.522695 -1.302615 19.703606 -7.528420 0.064470 -1.636748 -4.502837 0.000000 0.000000 0.000000 10.683122 10.689656 -32.660038 -11.943418 -18.364649 65.807207 1.302567 -20.245618 -12.723664 -1.031187 6.459022 -18.122242 -9.585976 -1.122679 -2.566649 -2.967683 -0.805062 1.308473 2.245962 -0.444447 2.921139 4.105756 1.156388 -32.919293 0.780438 0.624553 36.729923 0.039839 1.508863 19.904202 0.000000 0.000000 0.000000 4.482515 2.104206 -25.300537 23.233451 -34.332835 7.274045 4.091727 31.584657 -6.605763 0.000000 0.000000 0.000000 -7.125000 0.000000 0.000000 -18.851670 36.014899 -4.358099 0.000000 0.000000 0.000000 1.696558 11.778645 -2.115505 -12.682731 -20.818143 -2.340964 -3.986363 37.463757 7.401731 0.000000 0.000000 0.000000 7.125000 0.000000 0.000000 19.133407 36.762374 4.061250
1.349551 15.931074 -9.838052 173.932536 1.768994 -173.964199 0.000000 0.000000 0.000000 -30.376448 -7.422053 -7.888317 2.312120 9.487716 27.333410 -1.278086 19.527531 -7.483914 0.069029 -1.694043 -4.660862 0.000000 0.000000 0.000000 10.555169 10.718120 -33.171013 -11.707957 -18.262918 65.058397 1.314704 -20.392853 -13.077964 -1.016797 6.415336 -17.994308 -9.651286 -1.226420 -2.516071 -2.933793 -0.948963 1.306192 2.309828 -0.517169 2.907989 4.095139 1.144034 -32.955682 0.804843 0.590724 36.711743 0.044321 1.495885 19.901572 0.000000 0.000000 0.000000 4.524516 1.824674 -26.215867 23.927414 -35.081094 7.667421 4.174987 31.347742 -6.544122 0.000000 0.000000 0.000000 -7.125000 0.000000 0.000000 -18.769840 35.961478 -4.363262 0.000000 0.000000 0.000000 1.641744 11.946534 -3.767161 -12.348550 -20.323984 -2.222802 -4.074569 38.492816 7.489477 0.000000 0.000000 0.000000 7.125000 0.000000 0.000000 19.084200 36.851207 4.006056
1.353851 15.935740 -9.909330 173.925234 1.493377 -173.872922 0.000000 0.000000 0.000000 -30.375110 -7.389315 -7.581950 2.278692 9.423457 27.129558 -1.253746 19.349520 -7.432393 0.073857 -1.751365 -4.818994 0.000000 0.000000 0.000000 10.437726 10.750777 -33.642530 -11.456235 -18.147990 64.250858 1.328051 -20.544739 -13.401166 -1.004343 6.376919 -17.882016 -9.702807 -1.325162 -2.462643 -2.897323 -1.087542 1.306760 2.369178 -0.587311 2.896103 4.079845 1.128131 -33.000671 0.831050 0.553158 36.699126 0.049716 1.481322 19.904452 0.000000 0.000000 0.000000 4.581757 1.530924 -27.096793 24.632154 -35.812447 8.079101 4.258515 31.171841 -6.488179 0.000000 0.000000 0.000000 -7.125000 0.000000 0.000000 -18.689354 35.913405 -4.365818 0.000000 0.000000 0.000000 1.581420 12.104586 -5.497085 -12.025388 -19.840013 -2.112863 -4.169011 39.594957 7.572681 0.000000 0.000000 0.000000 7.125000 0.000000 0.000000 19.028785 36.936277 3.951695
1.358151 15.940405 -9.980607 173.917932 1.217761 -173.781644 0.000000 0.000000 0.000000 -30.373771 -7.356576 -7.275584 2.245264 9.359198 26.925706 -1.229405 19.171509 -7.380873 0.078684 -1.808687 -4.977127 0.000000 0.000000 0.000000 10.320282 10.783434 -34.114048 -11.204513 -18.033062 63.443319 1.341397 -20.696624 -13.724368 -0.991889 6.338501 -17.769725 -9.754327 -1.423903 -2.409216 -2.860853 -1.226121 1.307328 2.428529 -0.657452 2.884216 4.064551 1.112229 -33.045661 0.857257 0.515592 36.686510 0.055112 1.466758 19.907333 0.000000 0.000000 0.000000 4.638998 1.237174 -27.977719 25.336895 -36.543800 8.490781 4.342044 30.995940 -6.432237 0.000000 0.000000 0.000000 -7.125000 0.000000 0.000000 -18.608868 35.865333 -4.368374 0.000000 0.000000 0.000000 1.521096 12.262637 -7.227010 -11.702226 -19.356041 -2.002925 -4.263452 40.697098 7.655885 0.000000 0.000000 0.000000 7.125000 0.000000 0.000000 18.973369 37.021347 3.897335
